<svg width="800" height="801" viewBox="0 0 800 801" fill="none" xmlns="http://www.w3.org/2000/svg">
<path d="M233.334 111.4C282.363 83.0027 339.286 66.75 400 66.75C584.095 66.75 733.334 216.175 733.334 400.5C733.334 584.825 584.095 734.25 400 734.25C215.905 734.25 66.667 584.825 66.667 400.5C66.667 339.71 82.8994 282.715 111.261 233.625" stroke="white" stroke-width="57.125" stroke-linecap="round"/>
<path d="M494.281 636.497C481.9 667.488 467.202 692.072 451.025 708.845C434.848 725.617 417.51 734.25 400 734.25C382.491 734.25 365.153 725.617 348.976 708.845C332.799 692.072 318.101 667.488 305.719 636.497C293.338 605.505 283.517 568.713 276.816 528.221C270.116 487.728 266.667 444.329 266.667 400.5C266.667 356.671 270.116 313.272 276.816 272.779C283.517 232.287 293.338 195.495 305.719 164.503C318.101 133.512 332.799 108.928 348.976 92.1552C365.153 75.3827 382.491 66.75 400 66.75C417.51 66.75 434.848 75.3827 451.025 92.1552C467.202 108.928 481.9 133.512 494.281 164.503C506.662 195.495 516.484 232.287 523.184 272.779C529.885 313.272 533.334 356.671 533.334 400.5C533.334 444.329 529.885 487.728 523.184 528.221" stroke="white" stroke-width="57.125" stroke-linecap="round"/>
<path d="M66.667 400.5H333.334M733.334 400.5H466.667" stroke="white" stroke-width="57.125" stroke-linecap="round"/>
</svg>
