<svg width="55" height="55" viewBox="0 0 55 55" fill="none" xmlns="http://www.w3.org/2000/svg">
<path d="M28.6458 16.1367C28.2732 16.0742 27.8904 16.0417 27.5 16.0417C23.703 16.0417 20.625 19.1197 20.625 22.9167C20.625 26.7136 23.703 29.7917 27.5 29.7917C31.297 29.7917 34.375 26.7136 34.375 22.9167C34.375 22.5263 34.3425 22.1435 34.2799 21.7708" stroke="white" stroke-width="4" stroke-linecap="round"/>
<path d="M11.4582 34.8702C9.9744 31.0801 9.1665 27.0447 9.1665 23.2451C9.1665 12.9385 17.3746 4.58334 27.4998 4.58334C37.6251 4.58334 45.8332 12.9385 45.8332 23.2451C45.8332 33.4709 39.9818 45.4034 30.8524 49.6706C28.7242 50.6654 26.2755 50.6654 24.1473 49.6706C21.2315 48.3078 18.6501 46.163 16.487 43.5417" stroke="white" stroke-width="4" stroke-linecap="round"/>
</svg>
